<svg width="34" height="34" viewBox="0 0 34 34" fill="none" xmlns="http://www.w3.org/2000/svg">
<path d="M23.3277 1.95447L11.6232 13.6588C6.72561 18.5688 3.01672 24.5345 0.780635 31.0991C0.673999 31.4096 0.657016 31.7439 0.731632 32.0636C0.806248 32.3833 0.969444 32.6755 1.20251 32.9067L1.20863 32.9129C1.37081 33.0763 1.56371 33.206 1.77622 33.2946C1.98873 33.3832 2.21666 33.4289 2.4469 33.4291C2.64064 33.429 2.83304 33.397 3.01643 33.3346C9.58108 31.0985 15.5468 27.3896 20.4567 22.4919L32.1608 10.7876C33.3321 9.61628 33.9902 8.0276 33.9902 6.37107C33.9902 4.71454 33.3321 3.12586 32.1608 1.95451C31.5808 1.37451 30.8923 0.914438 30.1345 0.600546C29.3767 0.286654 28.5645 0.125095 27.7442 0.125092C26.0877 0.125085 24.499 0.783133 23.3277 1.95447V1.95447ZM18.8654 20.9009C14.4416 25.3132 9.11334 28.7134 3.24818 30.8671C5.40179 25.0019 8.80197 19.6737 13.2142 15.2498L20.1865 8.27753L25.8377 13.9287L18.8654 20.9009ZM30.5698 9.19666L27.4287 12.3377L21.7775 6.68657L24.9186 3.54543C25.2895 3.17349 25.7301 2.8783 26.2151 2.67677C26.7002 2.47524 27.2202 2.37131 27.7454 2.37093C28.2707 2.37055 28.7909 2.47373 29.2762 2.67456C29.7616 2.87539 30.2025 3.16994 30.5739 3.54135C30.9454 3.91276 31.2399 4.35375 31.4407 4.8391C31.6415 5.32444 31.7447 5.84461 31.7443 6.36987C31.7439 6.89512 31.64 7.41514 31.4385 7.90019C31.2369 8.38524 30.9417 8.82579 30.5698 9.19666Z" fill="black"/>
</svg>
