<svg width="26" height="32" viewBox="0 0 26 32" fill="none" xmlns="http://www.w3.org/2000/svg">
<path d="M2 10V30C2 31.1 2.9 32 4 32H22C23.1 32 24 31.1 24 30V10H2ZM8 28H6V14H8V28ZM12 28H10V14H12V28ZM16 28H14V14H16V28ZM20 28H18V14H20V28ZM24.5 4H18V1.5C17.9984 1.10266 17.8399 0.722048 17.5589 0.441085C17.278 0.160122 16.8973 0.00157989 16.5 0L9.5 0C9.10266 0.00157989 8.72205 0.160122 8.44108 0.441085C8.16012 0.722048 8.00158 1.10266 8 1.5V4H1.5C1.1025 4.00106 0.721582 4.15943 0.440506 4.44051C0.15943 4.72158 0.00105578 5.1025 0 5.5V8H26V5.5C25.9989 5.1025 25.8406 4.72158 25.5595 4.44051C25.2784 4.15943 24.8975 4.00106 24.5 4ZM16 4H10V2.026H16V4Z" fill="black"/>
</svg>
